# AST/ASF file generated using VICON BodyLanguage
# -----------------------------------------------
:version 1.10
:name VICON
:units
  mass 1.0
  length 0.45
  angle deg
:documentation
   .ast/.asf automatically generated from VICON data using
   VICON BodyBuilder and BodyLanguage model FoxedUp or BRILLIANT.MOD
:root
   order TX TY TZ RX RY RZ
   axis XYZ
   position 0 0 0  
   orientation 0 0 0 
:bonedata
  begin
     id 1 
     name lhipjoint
     direction 0.714689 -0.624256 0.315473 
     length 2.45343 
     axis 0 0 0  XYZ
  end
  begin
     id 2 
     name lfemur
     direction 0.34202 -0.939693 0  
     length 6.59069  
     axis 0 0 20  XYZ
    dof rx ry rz
    limits (-160.0 20.0)
           (-70.0 70.0)
           (-60.0 70.0)
  end
  begin
     id 3 
     name ltibia
     direction 0.34202 -0.939693 0   
     length 6.73476   
     axis 0 0 20   XYZ
    dof rx
    limits (-10.0 170.0)
  end
  begin
     id 4 
     name lfoot
     direction 0.0718085 -0.197292 0.977711   
     length 1.52607   
     axis -90 7.62852e-016 20   XYZ
    dof rx rz
    limits (-45.0 90.0)
           (-70.0 20.0)
  end
  begin
     id 5 
     name ltoes
     direction 1.53553e-011 -4.22024e-011 1   
     length 0.777832   
     axis -90 7.62852e-016 20   XYZ
    dof rx
    limits (-90.0 20.0)
  end
  begin
     id 6 
     name rhipjoint
     direction -0.727419 -0.612432 0.309497   
     length 2.50079  
     axis 0 0 0  XYZ 
  end
  begin
     id 7 
     name rfemur
     direction -0.34202 -0.939693 0   
     length 6.51665   
     axis 0 0 -20   XYZ
    dof rx ry rz
    limits (-160.0 20.0)
           (-70.0 70.0)
           (-70.0 60.0)
  end
  begin
     id 8 
     name rtibia
     direction -0.34202 -0.939693 0   
     length 6.48919   
     axis 0 0 -20   XYZ
    dof rx
    limits (-10.0 170.0)
 end
 begin
     id 9 
     name rfoot
     direction -0.112205 -0.308282 0.944655   
     length 1.68717  
     axis -90 -7.62852e-016 -20   XYZ
    dof rx rz
    limits (-45.0 90.0)
           (-20.0 70.0)
  end
  begin
     id 10 
     name rtoes
     direction -1.53583e-011 -4.21993e-011 1   
     length 0.846859   
     axis -90 -7.62852e-016 -20   XYZ
    dof rx
    limits (-90.0 20.0)
  end
  begin
     id 11 
     name lowerback
     direction -0.00119603 0.996364 -0.0851956   
     length 1.67242   
     axis 0 0 0   XYZ
    dof rx ry rz
    limits (-20.0 45.0)
           (-30.0 30.0)
           (-30.0 30.0)
  end
  begin
     id 12 
     name upperback
     direction -0.00531001 0.998318 0.0577248   
     length 1.64819   
     axis 0 0 0   XYZ
    dof rx ry rz
    limits (-20.0 45.0)
           (-30.0 30.0)
           (-30.0 30.0)
  end
  begin
     id 13 
     name thorax
     direction -0.00653676 0.995132 0.0983291   
     length 1.67429   
     axis 0 0 0   XYZ
    dof rx ry rz
    limits (-20.0 45.0)
           (-30.0 30.0)
           (-30.0 30.0)
  end
  begin
     id 14 
     name lowerneck
     direction 0.0141424 0.999886 0.00525412   
     length 1.59623   
     axis 0 0 0   XYZ
    dof rx ry rz
    limits (-20.0 45.0)
           (-30.0 30.0)
           (-30.0 30.0)
  end
  begin
     id 15 
     name upperneck
     direction -0.0640064 0.987178 -0.146232   
     length 1.59576   
     axis 0 0 0   XYZ
    dof rx ry rz
    limits (-20.0 45.0)
           (-30.0 30.0)
           (-30.0 30.0)
  end
  begin
     id 16
     name head
     direction -0.0222942 0.998496 -0.0500859  
     length 1.60959  
     axis 0 0 0   XYZ
    dof rx ry rz
    limits (-20.0 45.0)
           (-30.0 30.0)
           (-30.0 30.0)
  end
  begin
     id 17 
     name lclavicle
     direction 0.908549 0.392612 0.142806  
     length 2.80649  
     axis 0 0 0   XYZ
    dof ry rz
    limits (-20.0 10.0)
           (0.0 20.0)
  end
  begin
     id 18 
     name lhumerus
     direction 1 -4.48968e-011 1.08832e-028   
     length 4.2884   
     axis -180 -30 -90   XYZ
    dof rx ry rz
    limits (-60.0 90.0)
           (-90.0 90.0)
           (-90.0 90.0)
  end
  begin
     id 19
     name lradius
     direction 1 -4.48952e-011 -3.02642e-028   
     length 3.06552   
     axis -180 -30 -90   XYZ
    dof rx
    limits (-10.0 170.0)
  end
  begin
     id 20
     name lwrist
     direction 1 -4.49014e-011 1.58672e-027   
     length 1.53276   
     axis -1.65735e-015 90 90   XYZ
    dof ry
    limits (-180.0 0.0)
 end
  begin
     id 21 
     name lhand
     direction 1 -4.48928e-011 3.17344e-027   
     length 0.753045   
     axis -2.02492e-015 90 90   XYZ
    dof rx rz
    limits (-90.0 90.0)
           (-45.0 45.0)
  end
  begin
     id 22 
     name lfingers
     direction 1 -4.48958e-011 6.34687e-027   
     length 0.607124   
     axis -4.04985e-015 90 90   XYZ
    dof rx
    limits (0.0 90.0)
  end
  begin
     id 23
     name lthumb
     direction 0.707107 -6.34905e-011 0.707107   
     length 0.871712   
     axis -90 45 2.85299e-015   XYZ
    dof rx rz
    limits (-45.0 45.0)
           (-45.0 45.0)
  end
  begin
     id 24 
     name rclavicle
     direction -0.885098 0.45949 0.0739604   
     length 2.9478  
     axis 0 0 0   XYZ 
    dof ry rz
    limits (-10.0 20.0)
           (-20.0 0.0)
  end
  begin
     id 25 
     name rhumerus
     direction -1 -4.4898e-011 -2.61739e-027  
     length 4.52172   
     axis -180 30 90   XYZ
    dof rx ry rz
    limits (-90.0 60.0)
           (-90.0 90.0)
           (-90.0 90.0)
  end
  begin
     id 26 
     name rradius
     direction -1 -4.48945e-011 9.02552e-028   
     length 2.8914   
     axis -180 30 90   XYZ
    dof rx
    limits (-10.0 170.0)
  end
  begin
     id 27 
     name rwrist
     direction -1 -4.49018e-011 1.58672e-027   
     length 1.4457   
     axis -1.65735e-015 -90 -90   XYZ
    dof ry
    limits (-180.0 0.0)
  end
  begin
     id 28
     name rhand
     direction -1 -4.48825e-011 3.17344e-027   
     length 0.680541   
     axis -2.02492e-015 -90 -90   XYZ
    dof rx rz
    limits (-90.0 90.0)
           (-45.0 45.0)
  end
  begin
     id 29
     name rfingers
     direction -1 -4.49067e-011 6.34687e-027   
     length 0.54867   
     axis -4.04985e-015 -90 -90   XYZ
    dof rx
    limits (0.0 90.0)
  end
  begin
     id 30
     name rthumb
     direction -0.707107 -6.34833e-011 0.707107   
     length 0.787783   
     axis -90 -45 -2.85299e-015   XYZ
    dof rx rz
    limits (-45.0 45.0)
           (-45.0 45.0)
  end
:hierarchy
  begin
    root lhipjoint rhipjoint lowerback
    lhipjoint lfemur
    lfemur ltibia
    ltibia lfoot
    lfoot ltoes
    rhipjoint rfemur
    rfemur rtibia
    rtibia rfoot
    rfoot rtoes
    lowerback upperback
    upperback thorax
    thorax lowerneck lclavicle rclavicle
    lowerneck upperneck
    upperneck head
    lclavicle lhumerus
    lhumerus lradius
    lradius lwrist
    lwrist lhand lthumb
    lhand lfingers
    rclavicle rhumerus
    rhumerus rradius
    rradius rwrist
    rwrist rhand rthumb
    rhand rfingers
  end

#!OML:ASF E:\emotionWalksFemale\Project 1\Capture day 1\Session 1\Female1.ASF
:FULLY-SPECIFIED
:DEGREES
1
root 8.89118 15.0942 42.4238 177.564 1.3715 179.729
lowerback 5.73252 0.413653 -1.4192
upperback -2.63035 0.471551 0.28097
thorax -5.96862 0.302392 1.03748
lowerneck -6.2464 -1.15815 -4.9149
upperneck 6.54277 -1.35994 3.91863
head 3.31242 -0.635077 2.10587
rclavicle 9.29629e-015 -7.45443e-016
rhumerus -43.3685 21.5806 -99.5426
rradius 33.9231
rwrist 26.0166
rhand -3.12254 -57.4364
rfingers 7.12502
rthumb 22.5964 -86.1339
lclavicle 9.29629e-015 -7.45443e-016
lhumerus -48.6265 -8.06692 91.7688
lradius 35.8133
lwrist -14.9799
lhand -10.43 -33.695
lfingers 7.12502
lthumb 15.5695 -4.30169
rfemur -6.00169 12.976 22.973
rtibia 29.3874
rfoot -24.5801 -24.8926
rtoes -7.5837
lfemur -7.11751 -14.5475 -24.2318
ltibia 29.8285
lfoot -25.7069 17.6217
ltoes -17.3312
2
root 8.89147 15.0964 42.4298 177.712 1.61855 179.568
lowerback 5.66038 0.534087 -1.52574
upperback -2.69662 0.623331 0.213938
thorax -6.00213 0.381726 1.01116
lowerneck -5.99636 -1.17514 -4.99787
upperneck 6.26419 -1.39707 4.1156
head 3.17509 -0.649905 2.18185
rclavicle -7.76192e-015 1.2424e-015
rhumerus -43.42 21.823 -99.7005
rradius 33.4654
rwrist 26.6848
rhand -4.32947 -56.7423
rfingers 7.12502
rthumb 21.4375 -85.5762
lclavicle -7.76192e-015 1.2424e-015
lhumerus -48.4836 -7.97264 91.7773
lradius 35.5445
lwrist -15.3365
lhand -10.7799 -33.6861
lfingers 7.12502
lthumb 15.2325 -4.26689
rfemur -6.35649 12.8522 22.6875
rtibia 29.5584
rfoot -24.5498 -24.4973
rtoes -7.59173
lfemur -7.24003 -14.5156 -24.3827
ltibia 29.7219
lfoot -25.6964 17.7769
ltoes -17.365
3
root 8.89093 15.099 42.4351 177.725 1.36477 179.634
lowerback 5.75359 0.473985 -1.37179
upperback -2.72841 0.553422 0.197706
thorax -6.08496 0.341627 0.914576
lowerneck -5.83719 -1.17823 -4.8747
upperneck 6.05171 -1.41193 4.04468
head 3.06906 -0.658481 2.13126
rclavicle 1.80149e-016 1.88845e-015
rhumerus -43.5122 21.9725 -99.829
rradius 33.1678
rwrist 27.3167
rhand -4.5981 -56.7109
rfingers 7.12502
rthumb 21.1795 -85.574
lclavicle 1.80149e-016 1.88845e-015
lhumerus -48.3863 -7.94356 91.6799
lradius 35.6403
lwrist -14.7058
lhand -8.94036 -33.4535
lfingers 7.12502
lthumb 17.0038 -4.17776
rfemur -6.35936 12.6594 22.7493
rtibia 29.5535
rfoot -24.6375 -24.5083
rtoes -7.19364
lfemur -7.32662 -14.7267 -24.3036
ltibia 29.7663
lfoot -25.748 17.7298
ltoes -17.3675
4
root 8.89043 15.0998 42.4407 177.734 1.26385 179.808
lowerback 5.88519 0.474569 -1.09594
upperback -2.78822 0.577386 0.216821
thorax -6.22116 0.344135 0.775683
lowerneck -5.66538 -1.17477 -4.70736
upperneck 5.88316 -1.46617 3.8054
head 2.97365 -0.715065 2.01372
rclavicle 4.7522e-015 8.07563e-016
rhumerus -43.6944 22.0355 -99.9124
rradius 32.9706
rwrist 27.9365
rhand -4.44324 -56.713
rfingers 7.12502
rthumb 21.3283 -85.5593
lclavicle 4.7522e-015 8.07563e-016
lhumerus -48.4856 -8.08661 91.7615
lradius 35.5165
lwrist -15.3491
lhand -9.47715 -33.4516
lfingers 7.12502
lthumb 16.4871 -4.1321
rfemur -6.38924 12.6112 22.9394
rtibia 29.6001
rfoot -24.7189 -24.5241
rtoes -6.81676
lfemur -7.37431 -14.7914 -24.1055
ltibia 29.7528
lfoot -25.6875 17.6859
ltoes -17.801
5
root 8.89268 15.1014 42.4433 177.845 1.28468 179.788
lowerback 5.91138 0.539335 -1.04878
upperback -2.91244 0.669869 0.195128
thorax -6.36862 0.390119 0.715139
lowerneck -5.45993 -1.24289 -4.76836
upperneck 5.77608 -1.55681 3.77398
head 2.90315 -0.763857 2.00869
rclavicle -2.29689e-015 -3.60297e-016
rhumerus -43.9133 21.9802 -99.9391
rradius 32.6265
rwrist 28.744
rhand -5.22943 -55.7883
rfingers 7.12502
rthumb 20.573 -84.7182
lclavicle -2.29689e-015 -3.60297e-016
lhumerus -48.491 -8.05659 91.7406
lradius 35.4744
lwrist -15.4751
lhand -8.7851 -33.3746
lfingers 7.12502
lthumb 17.1533 -4.11179
rfemur -6.53366 12.6383 22.8904
rtibia 29.6033
rfoot -24.7065 -24.4756
rtoes -6.72542
lfemur -7.51062 -14.8203 -24.1036
ltibia 29.7732
lfoot -25.4748 17.9772
ltoes -18.3774
6
root 8.89493 15.1045 42.4463 177.995 1.24426 179.662
lowerback 5.99007 0.599818 -1.13342
upperback -3.08898 0.744504 0.144336
thorax -6.60289 0.433536 0.699007
lowerneck -5.27836 -1.31713 -4.83525
upperneck 5.70732 -1.65946 3.79112
head 2.852 -0.817406 2.02118
rclavicle -7.67185e-016 -6.58474e-016
rhumerus -44.1451 21.8498 -99.9694
rradius 32.2912
rwrist 29.3222
rhand -5.92139 -54.9248
rfingers 7.12502
rthumb 19.9079 -83.9251
lclavicle -7.67185e-016 -6.58474e-016
lhumerus -48.445 -8.05436 91.725
lradius 35.4237
lwrist -15.6545
lhand -8.34209 -33.5964
lfingers 7.12502
lthumb 17.5797 -4.37114
rfemur -6.72423 12.6101 22.712
rtibia 29.5951
rfoot -24.6407 -24.4954
rtoes -6.82919
lfemur -7.69363 -14.969 -24.2138
ltibia 29.8061
lfoot -25.2794 18.3719
ltoes -18.7368
